<svg xmlns="http://www.w3.org/2000/svg"><symbol id="micropachycephalosaurus" viewBox="0 0 256 256"><path fill="#0056cb" d="M132.8 150.2c-.3 0-.4.2-.4.6h-.1c-.3 0-.4.2-.4.5s.1.6.4.6.4-.2.4-.6h.1c.4 0 .5-.2.5-.5s-.1-.6-.5-.6zm1.5-.8a2.4 2.4 0 0 0-.9.8h.3a2.3 2.3 0 0 0 1.1-.3 2 2 0 0 0 .8-.8h-.3a1.9 1.9 0 0 0-1 .3zm3-2.5c-.3 0-.4.2-.4.5h-.2c-.2 0-.4.2-.4.6h-.1c-.3 0-.5.2-.5.6a.5.5 0 0 0 1 0c.3 0 .5-.2.5-.6h.1c.3 0 .5-.2.5-.6a.5.5 0 0 0-.5-.5zm22.9-5.9a8.7 8.7 0 0 1-1.2 1.4 2 2 0 0 0 .8 1.1l1.1.2a2.4 2.4 0 0 0 1.4-.5 5.8 5.8 0 0 0 1-1.2 10.9 10.9 0 0 0 .8-1.5c.2-.5.4-1.1.5-1.1h-3.4c-.2 0-.5 1-1 1.6z"/><path d="M128.3 1.7A125.7 125.7 0 1 0 254 127.3 125.6 125.6 0 0 0 128.3 1.7zm94.3 74.5l-1.6.4h-3.6a26.8 26.8 0 0 0-5.2 1.2 15 15 0 0 0-3.6 1.6 8.3 8.3 0 0 0-2.4 2.1 11.9 11.9 0 0 0-1.8 2.9 40.4 40.4 0 0 0-1.5 3.9c-.4 1.4-1 3.1-1.6 5l-1.2 3.4-1.2 3.1c-.5 1-.9 2.1-1.5 3.1a33.7 33.7 0 0 1-1.7 3.2 30.7 30.7 0 0 1-2.6 4l-2.9 3.7c-1.1 1.1-2.1 2.3-3.1 3.5a39.3 39.3 0 0 0-3.1 3.8 9.4 9.4 0 0 0-1.4 2.6 18.4 18.4 0 0 1-.9 2.5 9.8 9.8 0 0 1-1.3 2.2 5.7 5.7 0 0 1-2.5 1.6l-1.3.5-2 .7-2 .6-1.4.4a3 3 0 0 1 .2 2 2 2 0 0 1-.9.9l-1.2.6a1.4 1.4 0 0 0-.8 1l-2.3 6.6a2.5 2.5 0 0 1-1 1.5 5.1 5.1 0 0 1-1.8.9 6.1 6.1 0 0 1-1.9.1 10.9 10.9 0 0 1-1.9-.1h-.8c-.5 0-.9.2-1.1.1s-.4-.4-.4-.9a.4.4 0 0 1 .1-.3c0-.2.1-.2.2-.3s.2-.2.2-.3.1-.2.1-.4v-.2a21.6 21.6 0 0 0-3.4 1.7l-3.3 2-3.3 2.1a29 29 0 0 1-3.3 2l-.9.4-1.1.6a2.7 2.7 0 0 0-1 .8 1.4 1.4 0 0 0-.5 1v.6l1.8 1.6 1.9 1.7a15.6 15.6 0 0 0 2 1.6l2.1 1.2a7.5 7.5 0 0 0 1.8.7l1.9.5 1.9.6 1.6.9a8.3 8.3 0 0 1 1.3 1.4l1.1 1.5 1.1 1.5a6.1 6.1 0 0 0 1.5 1.2 3.8 3.8 0 0 0 1.7.6l2 .7a4 4 0 0 1 1.8 1 1.9 1.9 0 0 1 .7 1.6v.3a.4.4 0 0 0-.1.3l-5.5 1.1-1.1.4-1.2.2h-.4l-1.1-.7-1.8-1-1.6-1-1.1-.7-.2-.2-.3-.5-.3-.5-.3-.5-2.2-4.4-1.1-.5-1.8-.7-2.1-.9-2.1-1-1.8-.8-1.1-.6a16.4 16.4 0 0 1-2.8-1.6 12.7 12.7 0 0 1-2.5-2.1 12.1 12.1 0 0 1-2-2.6 8.9 8.9 0 0 1-1.1-3.1l-.5.2-.6.3-.9.7-1.7 1.1-2 1.4-2.1 1.4-1.8 1-.9.6-5.9 3.5a20.2 20.2 0 0 0-4.5 3.3 16.9 16.9 0 0 0-3.6 4.4c-.9 1.7-.7 3.9-2.4 6.6v.2c0 .1.1.2 0 .4v.9a10 10 0 0 0 1.2 4.4 7.8 7.8 0 0 0 2.1 2.6 10.8 10.8 0 0 0 2.6 1.4l2.5.9a4.7 4.7 0 0 1 2 1 5.3 5.3 0 0 1 .8 2h-13.2l-.2-.4c-.1-.2-.2-.1-.4-.2l-.4-.2-.7-.3a3 3 0 0 1-1.2-1.5 16 16 0 0 1-.5-2.1c0-.8.2-1.6.2-2.3a21.1 21.1 0 0 0 .3-2.1v-1.4a8.2 8.2 0 0 1 .3-1.8c.2-.8.3-1.6.6-2.6s.4-2 .7-3.1.6-2.2.8-3.2.5-1.8.7-2.6.3-1.4.4-1.7.4-1.4.6-2l1-1.9a16 16 0 0 0 4.5-2.5 33.1 33.1 0 0 0 3.2-3.3l2.9-3.4a14.3 14.3 0 0 1 3.4-3 3.7 3.7 0 0 1 1.4-.7l2-.8 2.3-1a10.3 10.3 0 0 0 2.1-1.1 5.3 5.3 0 0 0 1.6-1.3 2.4 2.4 0 0 0 .6-1.5v-1.4a1.4 1.4 0 0 0-.6-1.1l-.8-.3a4.3 4.3 0 0 0-1.2-.5l-1.1-.6-.8-.3a9.4 9.4 0 0 1-2-1.2l-2.6-1.9a24.3 24.3 0 0 0-2.6-1.5 2.9 2.9 0 0 0-1.7-.6h-7.8c-5.9 0-11.7-.1-17.4.1s-11.6.2-17.5.2-8.6-.2-12.7-.4a98.5 98.5 0 0 1-12.3-1.3 98.3 98.3 0 0 1-11.9-2.8 72.5 72.5 0 0 1-11.6-5l-1.4-.7-1.6-1a8 8 0 0 1-1.3-1.3 3 3 0 0 1-.5-1.5l2.1.3 2.4 1 2.1.9 1.5.7 4.6 1.6 5 1.4a45.9 45.9 0 0 0 5.1 1l4.8.3h26.2l2.6-.3 3.3-.5 3.6-.6 3.4-.6 2.6-.6 6.8-1.3 7.3-1.6q3.6-.9 7.2-2.1a42.4 42.4 0 0 0 6.5-2.8l3.8-1.7 3.8-1.6a22.3 22.3 0 0 1 3.9-1.3 27.1 27.1 0 0 1 4.1-.9h1l1.8-.2h1.7l1.1-.2 1.8-.3 3.3-.7 4.1-.9 4-.9c1.2-.3 2.3-1 3.2-1.2s1.6-.7 1.9-.7h6.5c2.7 0 5.3.5 7.8.7a66.6 66.6 0 0 0 7.8.5 10 10 0 0 0 5-1.2 16.2 16.2 0 0 0 4.4-3.5 28 28 0 0 0 3.9-4.9 62.2 62.2 0 0 0 3.2-5.6 44.6 44.6 0 0 0 2.5-5.5l1.8-4.7c.4-1.2.8-2.4 1.1-3.5a21.1 21.1 0 0 1 1-3 8.9 8.9 0 0 1 1.2-2.6 5.5 5.5 0 0 1 1.7-2 7.6 7.6 0 0 1 2.6-1.6 12.7 12.7 0 0 1 3.8-.8h3c.8 1.7 1.7.9 2.9 1.3L220 70a16 16 0 0 1 2.9 1.8 2.9 2.9 0 0 1 1.2 2.2 2 2 0 0 1-.4 1.4z"/></symbol><symbol id="velociraptor" viewBox="0 0 256 256"><path d="M128.5 2A125.5 125.5 0 1 0 254 127.5 125.5 125.5 0 0 0 128.5 2zM237 116.5h-7.2a90.8 90.8 0 0 1-9.1-.5l-9-.9-8.9-1a91 91 0 0 0-9.1-.4 125.4 125.4 0 0 0-16.1 1 68.1 68.1 0 0 0-15.6 3.6l-30.1 10.9a2.4 2.4 0 0 0-1.2 1.5 27.6 27.6 0 0 0-.8 2.7l-.6 2.8a8.1 8.1 0 0 1-.6 2 2.7 2.7 0 0 0 1.3 1.3 13.3 13.3 0 0 0 2.4 1.1l2.9 1.2a17.1 17.1 0 0 1 2.7 1.4 12.9 12.9 0 0 1 2.1 1.9 4.1 4.1 0 0 1 .8 2.4 1.7 1.7 0 0 1-.5 1.2l-1.2.9-1.6.7-1.6.8a4 4 0 0 0-1.2 1 2.5 2.5 0 0 0-.5 1.5 3.9 3.9 0 0 0 .8 2.5 7 7 0 0 0 1.9 1.5l2.4 1.4a6.8 6.8 0 0 1 2.1 1.7 14.5 14.5 0 0 1 2 3.4 25.3 25.3 0 0 1 1.2 3.6 23.3 23.3 0 0 1 .8 3.8c.2 1.3.1 2.6.3 3.9l1.3 1.3v7.1c0-.1.5-.1.8 0h1l1 .2.5.3a3.2 3.2 0 0 1 .1.8 4.1 4.1 0 0 1-.1 1 5.6 5.6 0 0 1-.4 1.2 1.8 1.8 0 0 1-.6.9.8.8 0 0 1-.8.3h-5.2c-.2 0-.5-.5-.9-.8l-1.5-.7a8 8 0 0 0-1.6-.8c-.5-.3-.8-.9-1.1-.9h-6.1a4.2 4.2 0 0 1 .7-2.9 3.9 3.9 0 0 1 1.6-1.5 6.5 6.5 0 0 1 2.1-.6l2.1-.4a3.8 3.8 0 0 0 1.6-.6 1.5 1.5 0 0 0 .6-1.3v-.7l-.9-1.7c-.3-.8-.8-1.6-1.2-2.4l-1.5-2.4a10 10 0 0 0-1.6-1.8l-1.2-.8-1.9-.9-1.7-1.1a2.1 2.1 0 0 1-1-1.1c-.3-.8-.6-1.8-.9-2.9a28.1 28.1 0 0 0-1-3.1 7.1 7.1 0 0 0-1.8-2.6 3.7 3.7 0 0 0-2.8-1 20.6 20.6 0 0 0-6 .8 24.1 24.1 0 0 0-5.6 2.2 23.8 23.8 0 0 0-4.9 3.4 21.1 21.1 0 0 0-3.9 4.5l-.4.2h-.1v-.2c-.1 0-.2-.1-.2-.3s-.1-.4-.2-.6a1.4 1.4 0 0 0-.2-.7c0-.1-.1-.2-.1-.3h-.3a1.3 1.3 0 0 0-1 .4 6.2 6.2 0 0 0-.9 1.2l-.8 1.3-.9 1a8.8 8.8 0 0 1-.6-1.7c0-.4-.1-.9-.1-1.6a12.6 12.6 0 0 1 .4-2.8l.9-2.8.9-2.5a15.9 15.9 0 0 0 .4-2.8h-4.9c0-1.6.2-1.7.6-2.3a8.1 8.1 0 0 1 1.6-1.6 18.9 18.9 0 0 1 2.1-.9l2.1-.2h3l2.9.5 2.8.5 2.9.2h2.3a2.3 2.3 0 0 0-1.7-1.3 10.1 10.1 0 0 0-2.5-.5l-2.6-.2c-.9 0-1.6.2-2.2-.2l-3.8-2.1h-.3a16.3 16.3 0 0 0-3.1-.1 10.8 10.8 0 0 1-3.1.2 7.3 7.3 0 0 1-3-.7l-2.6-1.4-2.6-1.3a5 5 0 0 0-2.9-.6v6l1.6-.2 1-.3.9-.5.9-.7h.6v2.7l1.9-.7c0 .2.2.3.3.6s.1.3.1.4a5.6 5.6 0 0 1-1.3 3.9 22.1 22.1 0 0 1-3.2 2.8A20.9 20.9 0 0 0 83 155l-4.7-.7v-7.7l-1.7.6a7.5 7.5 0 0 0-2 1 6.8 6.8 0 0 0-1.9 1.1c-.5.4-.9.8-.9 1.2v6.8a9.3 9.3 0 0 0 2.9-.3l1.8-.6 1.2-.6 1.2-.2h.4l.2.8a7.3 7.3 0 0 1 .5 1.2l.4 1.3a5.1 5.1 0 0 1 .2.9 7.2 7.2 0 0 1-.4 1.9 17.4 17.4 0 0 1-1.1 1.8 4.7 4.7 0 0 1-1.5 1.3 3.1 3.1 0 0 1-1.8.5h-1.1l-2.9-.4a23.3 23.3 0 0 1-3.6-.8 10.1 10.1 0 0 1-3.2-1.2 2.3 2.3 0 0 1-1.4-2v-11.8l.8-.8 1.9-1.6 2.4-2.1 2.3-2.5a21.1 21.1 0 0 0 1.8-2.7 4.7 4.7 0 0 0 .7-2.5 3.9 3.9 0 0 0-1.1-2.7 9.5 9.5 0 0 0-2.8-2 23 23 0 0 0-3.2-1.5l-2.5-.8-1.3-9-.6-2.7a10.9 10.9 0 0 0-1.1-2.7 9.1 9.1 0 0 0-1.8-2.1 3.9 3.9 0 0 0-2.6-.9 11.4 11.4 0 0 0-6.7 2l-1.7 1-2.5 1.4-2.9 1.8-2.9 1.7c-1 .5-1.8 1.2-2.5 1.6s-1.3 1.1-1.7 1.1h-1l-1.7-.2a7.9 7.9 0 0 1-2-.4 3.1 3.1 0 0 1-1.4-.7c-.4-.3-.3-.8-.3-1.4v-1.8c0-.6-.2-.9 0-.9h1.6a.8.8 0 0 1 0-.5c0-.2.1-.5.1-.8a3.1 3.1 0 0 0 .2-.8c.1-.3.1-.5 0-.5a1.5 1.5 0 0 0-.8-.8l-.8-.5a2.3 2.3 0 0 1-.7-.7 1.7 1.7 0 0 1-.3-1.2 2.7 2.7 0 0 1 .3-1.2 2.4 2.4 0 0 1 .6-1.1c.3-.4.3-.7.6-.9l.8-.3v.8c0 .4.4.9.6 1.4s.6.7 1.2.7a1.9 1.9 0 0 0 1.1-.4l.9-1.2a7.6 7.6 0 0 0 .6-1.6c.2-.4.3.3.3-1.3H23.4a1.5 1.5 0 0 1-.8-.5l-1.1-.7a3.2 3.2 0 0 1-.9-.8 1.8 1.8 0 0 1-.4-1 4.5 4.5 0 0 1 1.1-3.1 6.8 6.8 0 0 1 2.6-1.8l3.1-1a13.6 13.6 0 0 0 2.8-.8l2.2-.9 3.3-1.5 3.3-1.6a14.1 14.1 0 0 1 2.2-1.1h13.4a7 7 0 0 1 3.8 1 12.6 12.6 0 0 1 3.1 2.5 20.4 20.4 0 0 1 2.5 3.3c.8 1.1 1.5 2.2 2.3 3.2a14 14 0 0 0 2.2 2.5 3.6 3.6 0 0 0 2.5 1 .7.7 0 0 0 .7-.4 1.2 1.2 0 0 1 .9-.3l1.5.3 1.5.7 1.5.7a4 4 0 0 0 1.5.3l4.1-.2 4-.5 4.1-.4a26.9 26.9 0 0 1 4-.3c2.5 0 4.9.2 7.2.4a38.9 38.9 0 0 1 7.2 1.6c1.6.5 3.3 1.2 5 1.9l5 2.2a45.1 45.1 0 0 0 5.2 1.7 18.8 18.8 0 0 0 5.3.7h2.6l12.7-2.7c4.2-.8 8.4-1.6 12.6-2.2s8.5-1.2 12.8-1.6 8.6-.5 12.9-.5h8.8c1.8.1 3.5.7 5 .9l35.9 7.2h11.5c-.7 0-1.8 1-3 1.3a14 14 0 0 1-4.1.2z"/></symbol><symbol id="brachiosaurus" viewBox="0 0 256 256"><path fill="#0056cb" d="M59.7 166.4a31.9 31.9 0 0 0-7.7.8v.2c0 .2.3.6.8.9a7.5 7.5 0 0 0 2 1 12.8 12.8 0 0 0 2.6 1l2.8.9 2.3.5 1.5.3h2.1l2.5-.4 2.4-.9a6.1 6.1 0 0 0 1.7-1.4 25.6 25.6 0 0 0-6.4-2.2 29.6 29.6 0 0 0-6.6-.7z"/><path d="M128 1.7a126 126 0 1 0 126 126 126 126 0 0 0-126-126zm82.2 69.5v.3a8.8 8.8 0 0 1-.1 1.4 11.8 11.8 0 0 0-.3 2.1 17.7 17.7 0 0 0-.4 2c-.1.7-.2 1.1-.2 1.4a5.1 5.1 0 0 0-.9 1.8 14.6 14.6 0 0 0-.7 1.9c-.2.7-.3 1.3-.5 2a10.8 10.8 0 0 1-.8 1.9 30.1 30.1 0 0 1-1.6 3.1 21.1 21.1 0 0 0-1.6 3l-19.8 27.5c-.1.2-.1.4-.2.5l-.3.3-.3.3-.4.5-1.6 2.2c-.7.9-1.4 1.8-2.1 2.9l-2.1 3.2c-.8 1.1-1.4 2.2-2 3.2s-1 2-1.4 2.9a8.7 8.7 0 0 0-.5 2.3c0 .3-.2.6-.2.8s.2.4.2.7c-.2 0-.3.1-.3.4s.1.3.3.4v10a1.9 1.9 0 0 1-.3 1l-.3 1.2a6.7 6.7 0 0 0-.6 1.2c-.1.4-.5.8-.5 1.1v1.6c0 .1.2.2 0 .5s-.2.5-.4.7l-.7.8c-.2.3-.5.4-.5.5v.3c0 .1.7.3.8.5s.8.3.8.4v2.8a23.3 23.3 0 0 1-.6 3.5c-.2 1.1-.5 2.3-.7 3.4s-.5 2.3-.7 3.5a20.7 20.7 0 0 0-.3 3.5 42.2 42.2 0 0 0 .3 6.2 40.9 40.9 0 0 0 1 6.1 35.4 35.4 0 0 0 2.2 5.7 21.8 21.8 0 0 0 3.3 5.2 3.6 3.6 0 0 1-1.2.8l-1.7.7-1.7.5h-1.9l-1-.3-1.2-.3-.9-.2h-.8l-.7-.3a1 1 0 0 1-.6-.5 1.6 1.6 0 0 1-.4-.7 26.1 26.1 0 0 0 .2-4l-.3-4.2c-.2-1.4-.4-2.9-.5-4.3l-.6-4-.2-.6a.8.8 0 0 0-.2-.6c.1-1.1.1-2.3.1-3.6s0-2.7-.1-4a25.7 25.7 0 0 0-.6-4 12.8 12.8 0 0 0-1.4-3.4 3.7 3.7 0 0 0-1.4 1.8 21.3 21.3 0 0 0-.8 2.7c-.2 1-.2 1.9-.4 2.9s-1 1.7-1 2.3v1.4a16.2 16.2 0 0 1 0 2.2v3.8c0 2.8-.2 5.5-.1 8.2a73.6 73.6 0 0 0 .6 8.1l.4.4.8.6a2.7 2.7 0 0 1 .8.7.9.9 0 0 1 .3.6c0 .2-.2.5-.8.8a7.5 7.5 0 0 1-1.8.8 10.4 10.4 0 0 1-2 .8l-1.3.5h-.1l-4.8-2.6a.6.6 0 0 1-.2-.5v-.6a29.9 29.9 0 0 1 0-3 13.2 13.2 0 0 0 .2-2.9c0-1.3-.2-2.6-.3-3.8l-.6-3.7-.6-3.7a23.8 23.8 0 0 1-.3-3.9c0-1.2.1-2.3.1-3.2a23.6 23.6 0 0 1 .4-2.8c.2-.9.3-1.9.5-2.8s.4-2 .7-3.2a2.3 2.3 0 0 0-.1-.7c0-.3-.1-.5-.1-.7l-1.9.2-1.8.5-1.9.6a13.9 13.9 0 0 1-1.9.6h-1.3l-1.1.2h-1l-1-.2h-7a45.2 45.2 0 0 0-5.3-.2H121a4 4 0 0 0-2.3.8v5.2c0 1.7-.1 3.4-.1 5.1l-.3 5c-.1 1.7-.2 3.4-.2 5.2v2.6a7.5 7.5 0 0 1 0 1.5v1c0 .6.7 1.1 1.2 1.7l1.3 1.7a6.6 6.6 0 0 1 1.2 1.7 3.2 3.2 0 0 1 .6 1.8v.4a10.7 10.7 0 0 1-4 .4c.1.4 0 .7-.2.7h-2.7a9 9 0 0 1-2.3-.2 4.2 4.2 0 0 1-1.8-.8 2.2 2.2 0 0 1-.7-1.9 4.9 4.9 0 0 1 .1-1.2l.3-1.3a7.9 7.9 0 0 0 .3-1.3 6.8 6.8 0 0 0 .2-1.4 23.4 23.4 0 0 0-.3-3.8c-.2-1.2-.4-2.4-.7-3.6s-.5-2.6-.8-3.8a27.8 27.8 0 0 1-.7-3.9h-.4c-.2 0-.4.8-.5.9l-.4.7-.3.5a18.8 18.8 0 0 1-1.6 2.3l-1.4 2.2a25.6 25.6 0 0 0-1.1 2.4 8.4 8.4 0 0 0-.4 2.7 4.5 4.5 0 0 0 .3 1.6 10.7 10.7 0 0 0 .7 1.5l.8 1.2.3.5a.9.9 0 0 1-.4.8l-1 .4-1.3.3H98l-1.1-.4a2.2 2.2 0 0 1-.7-.9 10.3 10.3 0 0 1-.5-1.6 9.8 9.8 0 0 1-.5-1.6 4.5 4.5 0 0 1-.3-1.6 2.8 2.8 0 0 1 .4-1.5l.9-1.6 1.1-1.6.8-1.4 2.4-5.8c.8-2 1.6-3.9 2.5-5.9a4.3 4.3 0 0 1 .4-.7l.6-.7c.1-.3.3-.5.4-.8a1.9 1.9 0 0 0 .2-.8c0-.4-.2-.6-.4-.6H103l-8.9 2.4a3.2 3.2 0 0 1-1.3.5l-1.8.4a7.6 7.6 0 0 0-1.6.6 1.1 1.1 0 0 0-.6 1 2 2 0 0 0 .2.9l.7.7.8.5.7.6-.4.5-1.2-.9-1.4-.8-1.5-.6a3.9 3.9 0 0 0-1.5-.2 12.8 12.8 0 0 0-3.8.5l-3.9 1.1-4.1 1.1a14.7 14.7 0 0 1-4.2.5 17.7 17.7 0 0 1-3.4-.4 32.6 32.6 0 0 1-4.8-1.1 56 56 0 0 1-5.4-1.7 46.8 46.8 0 0 1-5-2.2A18.7 18.7 0 0 1 47 172a4 4 0 0 1-1.4-2.9 4.3 4.3 0 0 1 1.1-3.3 6.1 6.1 0 0 1 2.7-1.6 19.4 19.4 0 0 1 3.5-.2c1.2 0 2.3.4 3.3.4h3.9c.2 0 .6-.4 1.3-.3a19.5 19.5 0 0 1 2.3.2l2.5.3 2 .2a6 6 0 0 1 1.9.6l1.8.8 1.8.8a6.4 6.4 0 0 0 2 .3 7.5 7.5 0 0 0 3.9-1.1 25 25 0 0 0 4.1-2.5 40.8 40.8 0 0 0 3.9-3.1l3.2-2.7 1.9-1.2 1.8-1.1 1.7-1.2a8 8 0 0 0 1.5-1.7 33 33 0 0 0 2.6-4.5 39.9 39.9 0 0 1 2.7-4.4 5.3 5.3 0 0 1 1.3-1.3l1.5-1 1.6-.8 1.6-.9 3.6-2.7c1.2-.9 2.3-1.9 3.4-2.9l3.3-2.9 3.5-2.9a32.8 32.8 0 0 1 3.7-2.2l3.9-1.8 2.5-1.3 2.4-1.3 2.6-1.1a11.1 11.1 0 0 1 2.6-.7l22.2-3.3a9.5 9.5 0 0 0 3.5-1.1 21 21 0 0 0 3.3-2.2 40 40 0 0 0 3.2-2.8c1-1.1 1.9-2.2 2.9-3.2l2.6-3.2 2.3-2.8 7.6-8.9.4-.3.5-.5.5-.5.3-.3 2-3.2c0-.1.1-.1.3-.2l.3-.2.4-.3c.1-.1.2-.1.2-.2l.4-.4.4-.4a11.1 11.1 0 0 0 1.2-1.6 24.3 24.3 0 0 0 1.4-2l1.3-1.9 1-1.8a11.9 11.9 0 0 0 .8-2c.2-.6.5-1.4.7-2.1a18 18 0 0 1 .8-2.1c.2-.8 1-1.5 1-2.2v-6.1a5.3 5.3 0 0 0-1.1-3 10.7 10.7 0 0 0-2.6-2.6 12.4 12.4 0 0 0-3.4-1.8 8 8 0 0 0-3.1-.7 21.5 21.5 0 0 0-5.8.7 12.4 12.4 0 0 0-5.1 2.6l-1.4 1.4c-.5.6-1.1 1.2-1.6 1.9l-1.8 2-1.8 1.8a10.2 10.2 0 0 1-1.8 1.3 4.1 4.1 0 0 1-1.8.5 1.7 1.7 0 0 1-1.6-1.6v-.4a4.3 4.3 0 0 0 .1-.5 3.1 3.1 0 0 1 .2-.8c0-.2.1-.5.1-.7a2 2 0 0 1 .1-.5 3.8 3.8 0 0 0-.3-1.6 5.9 5.9 0 0 0-.6-1.4l-.6-1.2a5 5 0 0 1-.2-1.2c.4 0 .7-.1.8-.3a1.5 1.5 0 0 0 .5-.6l.4-.7a1.2 1.2 0 0 1 .8-.6c0-.1.2-.1.5-.1h2.3c.5 0 .8-.1.9-.4l.8-.6h.3l.3.4c0 .2.1.4.2.4s.1-.3.4-.4l.6-.3 1.1-.7 1.3-.8 1.4-.7 1-.7.6-.4a12 12 0 0 1 2.1-1.2l1.7-.7 2-.2h6.3l1.5.5 1.5.3 1.6.3 1.5.5a17.7 17.7 0 0 1 4.5 3 16.7 16.7 0 0 1 3.2 4.2 19.6 19.6 0 0 1 1.7 5 24.7 24.7 0 0 1 .5 5.4v2.3z"/></symbol></svg>